{
    "accessors" : [
        {
            "bufferView" : 0,
            "componentType" : 5123,
            "count" : 432,
            "max" : [
                261
            ],
            "min" : [
                0
            ],
            "type" : "SCALAR"
        },
        {
            "bufferView" : 1,
            "componentType" : 5126,
            "count" : 262,
            "max" : [
                0.10240373015403748,
                0.5752681493759155,
                0.16162890195846558
            ],
            "min" : [
                -0.10240358114242554,
                -0.19295620918273926,
                -0.16162896156311035
            ],
            "type" : "VEC3"
        },
        {
            "bufferView" : 2,
            "componentType" : 5126,
            "count" : 262,
            "max" : [
                1.0,
                0.7814919948577881,
                0.9604150056838989
            ],
            "min" : [
                -1.0,
                -1.0,
                -0.9604149460792542
            ],
            "type" : "VEC3"
        },
        {
            "bufferView" : 3,
            "componentType" : 5123,
            "count" : 24,
            "max" : [
                9
            ],
            "min" : [
                0
            ],
            "type" : "SCALAR"
        },
        {
            "bufferView" : 4,
            "componentType" : 5126,
            "count" : 10,
            "max" : [
                0.042147181928157806,
                0.5632922053337097,
                0.0665229856967926
            ],
            "min" : [
                -0.04214707762002945,
                0.5632922053337097,
                -0.06652301549911499
            ],
            "type" : "VEC3"
        },
        {
            "bufferView" : 5,
            "componentType" : 5126,
            "count" : 10,
            "max" : [
                -2.126208755726111e-07,
                1.0,
                -0.0
            ],
            "min" : [
                -2.126208755726111e-07,
                1.0,
                -0.0
            ],
            "type" : "VEC3"
        }
    ],
    "asset" : {
        "generator" : "Khronos Blender glTF 2.0 exporter",
        "version" : "2.0"
    },
    "bufferViews" : [
        {
            "buffer" : 0,
            "byteLength" : 864,
            "byteOffset" : 0,
            "target" : 34963
        },
        {
            "buffer" : 0,
            "byteLength" : 3144,
            "byteOffset" : 864,
            "target" : 34962
        },
        {
            "buffer" : 0,
            "byteLength" : 3144,
            "byteOffset" : 4008,
            "target" : 34962
        },
        {
            "buffer" : 0,
            "byteLength" : 48,
            "byteOffset" : 7152,
            "target" : 34963
        },
        {
            "buffer" : 0,
            "byteLength" : 120,
            "byteOffset" : 7200,
            "target" : 34962
        },
        {
            "buffer" : 0,
            "byteLength" : 120,
            "byteOffset" : 7320,
            "target" : 34962
        }
    ],
    "buffers" : [
        {
            "byteLength" : 7440,
            "uri" : "glass_bottle.bin"
        }
    ],
    "materials" : [
        {
            "name" : "Bottle glass",
            "pbrMetallicRoughness" : {
                "baseColorFactor" : [
                    0.012958886222111943,
                    0.38656045522657223,
                    0.18390087523707166,
                    1.0
                ],
                "metallicFactor" : 0.0
            }
        },
        {
            "name" : "Material",
            "pbrMetallicRoughness" : {
                "baseColorFactor" : [
                    0.018029119342999445,
                    0.03556337707584167,
                    0.027963799654898036,
                    1.0
                ],
                "metallicFactor" : 0.0
            }
        }
    ],
    "meshes" : [
        {
            "name" : "Cylinder",
            "primitives" : [
                {
                    "attributes" : {
                        "NORMAL" : 2,
                        "POSITION" : 1
                    },
                    "indices" : 0,
                    "material" : 0
                },
                {
                    "attributes" : {
                        "NORMAL" : 5,
                        "POSITION" : 4
                    },
                    "indices" : 3,
                    "material" : 1
                }
            ]
        }
    ],
    "nodes" : [
        {
            "mesh" : 0,
            "name" : "Cylinder",
            "scale" : [
                0.44139420986175537,
                0.44139420986175537,
                0.3091486692428589
            ]
        }
    ],
    "scene" : 0,
    "scenes" : [
        {
            "name" : "Scene",
            "nodes" : [
                0
            ]
        }
    ]
}
